<svg width="51" height="46" viewBox="0 0 51 46" fill="none" xmlns="http://www.w3.org/2000/svg">
<path d="M20.5047 9.04895C19.7656 9.47005 19.396 9.6806 19.1929 10.0301C18.9897 10.3796 18.9897 10.8049 18.9897 11.6556V11.8311C18.9897 14.145 18.9897 15.3019 19.741 15.7347C20.4922 16.1675 21.493 15.5871 23.4947 14.4264L34.8934 7.81629C35.6231 7.39314 35.988 7.18156 36.1882 6.83396C36.3885 6.48636 36.3885 6.05964 36.3885 5.2062C36.3885 2.88056 36.3885 1.71774 35.6422 1.28402C34.896 0.85029 33.8985 1.41856 31.9035 2.55511L20.5047 9.04895Z" fill="#1A1A1A"/>
<path d="M34.7632 11.8963C34.0188 11.4574 33.6465 11.238 33.2365 11.2384C32.8265 11.2388 32.4547 11.4589 31.711 11.8993L31.5582 11.9898C29.5957 13.1519 28.6144 13.733 28.6186 14.5928C28.6228 15.4526 29.6096 16.0242 31.5832 17.1672L43.0348 23.7994C43.7764 24.2289 44.1472 24.4436 44.5541 24.4416C44.9611 24.4396 45.3342 24.2186 46.0805 23.7766C48.0533 22.6081 49.0397 22.0238 49.0388 21.1679C49.0379 20.312 48.0633 19.7374 46.1139 18.5882L34.7632 11.8963Z" fill="#1A1A1A"/>
<path d="M7.61271 22.0405C6.8683 21.6018 6.49609 21.3824 6.08612 21.3828C5.67614 21.3832 5.30439 21.6034 4.56089 22.0437L4.40846 22.1339C2.44569 23.2962 1.46431 23.8773 1.46854 24.7372C1.47276 25.5971 2.4598 26.1686 4.43388 27.3115L15.8845 33.9411C16.626 34.3705 16.9968 34.5851 17.4037 34.5831C17.8106 34.5811 18.1837 34.3601 18.9298 33.9182C20.9026 32.7497 21.889 32.1654 21.8881 31.3094C21.8871 30.4534 20.9123 29.8789 18.9625 28.7298L7.61271 22.0405Z" fill="#1A1A1A"/>
<path d="M15.4144 38.006C14.6752 38.4271 14.3057 38.6376 14.1025 38.9871C13.8994 39.3366 13.8994 39.762 13.8994 40.6127V40.7913C13.8994 43.1051 13.8994 44.2621 14.6507 44.6948C15.4019 45.1276 16.4027 44.5472 18.4044 43.3865L29.8031 36.7764C30.5328 36.3533 30.8977 36.1417 31.0979 35.7941C31.2982 35.4465 31.2982 35.0195 31.2982 34.1656C31.2982 31.8384 31.2982 30.6748 30.5519 30.241C29.8056 29.8073 28.8081 30.3756 26.8131 31.5121L15.4144 38.006Z" fill="#1A1A1A"/>
<path d="M16.9699 7.01109C16.964 6.16013 16.9611 5.73466 16.7555 5.38649C16.5498 5.03832 16.1786 4.83035 15.4362 4.41442L15.3331 4.35662C13.3152 3.22614 12.3063 2.66091 11.5617 3.10452C10.817 3.54813 10.8337 4.70446 10.8671 7.01713L11.0595 20.3595C11.0717 21.2031 11.0778 21.6248 11.283 21.9696C11.4883 22.3143 11.8564 22.5206 12.5926 22.9333C14.5963 24.0566 15.5981 24.6183 16.3414 24.1794C17.0846 23.7406 17.0768 22.5926 17.061 20.2967L16.9699 7.01109Z" fill="#1A1A1A"/>
<path d="M39.3399 25.686C39.3342 24.8351 39.3313 24.4096 39.1257 24.0614C38.9202 23.7132 38.549 23.5052 37.8067 23.0892L37.7007 23.0298C35.6827 21.8988 34.6738 21.3333 33.929 21.7768C33.1842 22.2204 33.2009 23.377 33.2343 25.69L33.4267 39.0314C33.4389 39.8749 33.4449 40.2967 33.6502 40.6414C33.8555 40.9861 34.2237 41.1925 34.96 41.6053C36.9638 42.7287 37.9656 43.2903 38.7089 42.8516C39.4521 42.4128 39.4444 41.2651 39.429 38.9695L39.3399 25.686Z" fill="#1A1A1A"/>
</svg>
